# Blender 5.0.1
# www.blender.org
mtllib Boden 1 Flat.mtl
o NurbsPath.003
v -1.000000 0.000000 90.000000
v 1.079423 -0.450000 90.000000
v 0.300000 0.000000 90.000000
v -1.000001 -0.000002 60.000004
v 0.750000 -0.120577 90.000000
v -1.000000 -5.000000 90.000000
v 1.000000 -5.000000 90.000000
v 0.999999 -5.000002 60.000004
v -1.000001 -5.000002 60.000004
v 1.000000 -0.900000 90.000000
v 0.999999 -0.900002 60.000004
v 0.299999 -0.000002 60.000004
v 0.749999 -0.120579 60.000004
v 1.079421 -0.450002 60.000004
v 1.167648 -0.779259 90.000000
v 1.167646 -0.779261 60.000004
vn -0.0000 1.0000 -0.0000
vn 1.0000 -0.0000 -0.0000
vn -0.0000 -1.0000 -0.0000
vn -1.0000 -0.0000 -0.0000
vn -0.2588 -0.9659 -0.0000
vn -0.7071 -0.7071 -0.0000
vn -0.5844 0.8115 -0.0000
vn -0.9659 -0.2588 -0.0000
vt 0.000000 1.000000
vt 1.000000 1.000000
vt 1.000000 0.000000
vt 0.000000 0.000000
vt 1.000000 0.550000
vt 0.000000 0.550000
vt 1.000000 0.775000
vt 0.000000 0.775000
vt 1.000000 0.979904
vt 0.000000 0.979904
vt 0.000000 0.994608
vt 1.000000 0.994608
s 0
f 7/1/1 8/2/1 9/3/1 6/4/1
f 1/4/2 6/4/2 9/3/2 4/3/2
f 1/4/3 4/3/3 12/5/3 3/6/3
f 10/1/4 11/2/4 8/2/4 7/1/4
f 3/6/5 12/5/5 13/7/5 5/8/5
f 13/7/6 14/9/6 2/10/6 5/8/6
f 11/2/7 10/1/7 15/11/7 16/12/7
f 2/10/8 14/9/8 16/12/8 15/11/8
